<svg width="134" height="61" viewBox="0 0 134 61" fill="none" xmlns="http://www.w3.org/2000/svg">
<g filter="url(#filter0_d_53_739)">
<path d="M26.28 42.0001H14.408C11.72 39.5361 9.75999 36.6054 8.52799 33.2081C7.29599 29.8107 6.67999 26.2641 6.67999 22.5681C6.67999 18.8347 7.42666 15.1574 8.91999 11.536C10.4133 7.91472 12.504 5.00272 15.192 2.80005H28.8V9.52005H18.384C17.4133 10.6401 16.5733 12.4134 15.864 14.8401C15.1547 17.2294 14.8 19.7867 14.8 22.5121C14.8 25.2001 15.1173 27.7761 15.752 30.2401C16.424 32.6667 17.2453 34.4214 18.216 35.5041H23.592V20.2721H30.984V29.68C30.984 34.8321 29.416 38.9387 26.28 42.0001Z" fill="white"/>
<path d="M35.1359 42.0001V13.384H40.4559L41.8559 16.4081C43.3492 14.392 45.2345 13.384 47.5119 13.384H49.6959V20.8881H42.5839V42.0001H35.1359Z" fill="white"/>
<path d="M68.8929 42.0001H56.6849C52.9516 38.5281 51.0849 33.7867 51.0849 27.7761C51.0849 24.7521 51.4956 22.1201 52.3169 19.8801C53.1756 17.6401 54.5196 15.4747 56.3489 13.384H69.4529C71.3943 15.624 72.7196 17.808 73.4289 19.9361C74.1383 22.0267 74.4929 24.64 74.4929 27.7761C74.4929 33.7867 72.6263 38.5281 68.8929 42.0001ZM60.6609 36.1201H64.9169C66.2609 33.5067 66.9329 30.5387 66.9329 27.2161C66.9329 23.8934 66.2423 21.2427 64.8609 19.264H60.6609C59.3169 21.168 58.6449 23.8747 58.6449 27.3841C58.6449 30.8561 59.3169 33.7681 60.6609 36.1201Z" fill="white"/>
<path d="M88.4137 42.0001H82.5337C80.8911 39.9094 79.7711 37.8187 79.1737 35.7281C78.5764 33.6374 78.2777 31.0241 78.2777 27.8881V13.384H85.7257V28.4481C85.7257 31.8454 86.3977 34.4027 87.7417 36.1201H92.9497V13.384H100.398V42.0001H94.5177L93.5097 39.9841C92.0911 41.3281 90.3924 42.0001 88.4137 42.0001Z" fill="white"/>
<path d="M105.189 13.384H111.181L112.021 15.4001C112.843 14.6534 113.608 14.1307 114.317 13.8321C115.064 13.5334 116.165 13.384 117.621 13.384H122.661C124.229 14.9147 125.461 16.8934 126.357 19.32C127.253 21.7467 127.701 24.4161 127.701 27.3281C127.701 33.5627 125.835 38.4534 122.101 42.0001H117.341C115.363 42.0001 113.795 41.4774 112.637 40.4321V50.4001H105.189V13.384ZM112.637 36.1201H118.013C119.395 33.7681 120.085 30.9121 120.085 27.5521C120.085 24.1921 119.376 21.4294 117.957 19.264H112.637V36.1201Z" fill="white"/>
<path d="M26.28 43.0001H26.6872L26.9785 42.7156C30.3411 39.4332 31.984 35.0503 31.984 29.68V20.2721V19.2721H30.984H23.592H22.592V20.2721V34.5041H18.6871C17.9722 33.5611 17.3007 32.083 16.7181 29.9818C16.1071 27.6064 15.8 25.1174 15.8 22.5121C15.8 19.8741 16.1432 17.4134 16.8226 15.1247L16.8238 15.1206C17.4402 13.0119 18.1327 11.5037 18.8634 10.52H28.8H29.8V9.52005V2.80005V1.80005H28.8H15.192H14.8346L14.5582 2.02657C11.7268 4.34669 9.54371 7.40043 7.99551 11.1548C6.45481 14.891 5.67999 18.6975 5.67999 22.5681C5.67999 26.3776 6.31536 30.0398 7.5879 33.549C8.87533 37.0992 10.9266 40.1654 13.7323 42.7372L14.019 43.0001H14.408H26.28ZM34.1359 42.0001V43.0001H35.1359H42.5839H43.5839V42.0001V21.8881H49.6959H50.6888C50.2833 23.6782 50.0849 25.643 50.0849 27.7761C50.0849 34.0104 52.0306 39.0372 56.0039 42.7323L56.2918 43.0001H56.6849H68.8929H69.2861L69.5739 42.7323C73.5472 39.0372 75.4929 34.0104 75.4929 27.7761C75.4929 24.5745 75.1321 21.8451 74.377 19.6181C73.6151 17.3332 72.2092 15.0375 70.2086 12.7291L69.9096 12.384H69.4529H56.3489H55.8952L55.5964 12.7255C53.7015 14.8912 52.2901 17.1561 51.3832 19.5221L51.3806 19.5289L51.3781 19.5358C51.1077 20.2732 50.8805 21.047 50.6959 21.8567V20.8881V13.384V12.384H49.6959H47.5119C45.4113 12.384 43.604 13.1421 42.1158 14.5892L41.3633 12.9639L41.0949 12.384H40.4559H35.1359H34.1359V13.384V42.0001ZM81.7474 42.6179L82.0477 43.0001H82.5337H88.4137C90.19 43.0001 91.7854 42.5135 93.1731 41.5468L93.6233 42.4473L93.8997 43.0001H94.5177H100.398H101.398V42.0001V13.384V12.384H100.398H92.9497H91.9497V13.384V35.1201H88.2529C87.2765 33.6473 86.7257 31.4653 86.7257 28.4481V13.384V12.384H85.7257H78.2777H77.2777V13.384V27.8881C77.2777 31.0797 77.5808 33.7929 78.2122 36.0028C78.8521 38.2425 80.042 40.4473 81.7474 42.6179ZM105.189 12.384H104.189V13.384V50.4001V51.4001H105.189H112.637H113.637V50.4001V42.2703C114.718 42.766 115.963 43.0001 117.341 43.0001H122.101H122.501L122.79 42.7251C126.763 38.9507 128.701 33.7747 128.701 27.3281C128.701 24.3126 128.237 21.5243 127.295 18.9737C126.357 16.4326 125.052 14.32 123.36 12.6685L123.068 12.384H122.661H117.621C116.124 12.384 114.87 12.5337 113.946 12.9036L113.937 12.9069L113.929 12.9104C113.433 13.1195 112.932 13.4115 112.428 13.7764L112.104 12.9994L111.848 12.384H111.181H105.189ZM65.9329 27.2161C65.9329 30.1684 65.3802 32.7968 64.2939 35.1201H61.2571C60.1978 33.0408 59.6449 30.4754 59.6449 27.3841C59.6449 24.2594 60.1973 21.9186 61.2008 20.264H64.3202C65.3689 21.9816 65.9329 24.2743 65.9329 27.2161ZM119.085 27.5521C119.085 30.5345 118.518 33.0451 117.426 35.1201H113.637V20.264H117.4C118.504 22.1604 119.085 24.5716 119.085 27.5521Z" stroke="url(#paint0_linear_53_739)" stroke-width="2"/>
<path d="M26.28 43.0001H26.6872L26.9785 42.7156C30.3411 39.4332 31.984 35.0503 31.984 29.68V20.2721V19.2721H30.984H23.592H22.592V20.2721V34.5041H18.6871C17.9722 33.5611 17.3007 32.083 16.7181 29.9818C16.1071 27.6064 15.8 25.1174 15.8 22.5121C15.8 19.8741 16.1432 17.4134 16.8226 15.1247L16.8238 15.1206C17.4402 13.0119 18.1327 11.5037 18.8634 10.52H28.8H29.8V9.52005V2.80005V1.80005H28.8H15.192H14.8346L14.5582 2.02657C11.7268 4.34669 9.54371 7.40043 7.99551 11.1548C6.45481 14.891 5.67999 18.6975 5.67999 22.5681C5.67999 26.3776 6.31536 30.0398 7.5879 33.549C8.87533 37.0992 10.9266 40.1654 13.7323 42.7372L14.019 43.0001H14.408H26.28ZM34.1359 42.0001V43.0001H35.1359H42.5839H43.5839V42.0001V21.8881H49.6959H50.6888C50.2833 23.6782 50.0849 25.643 50.0849 27.7761C50.0849 34.0104 52.0306 39.0372 56.0039 42.7323L56.2918 43.0001H56.6849H68.8929H69.2861L69.5739 42.7323C73.5472 39.0372 75.4929 34.0104 75.4929 27.7761C75.4929 24.5745 75.1321 21.8451 74.377 19.6181C73.6151 17.3332 72.2092 15.0375 70.2086 12.7291L69.9096 12.384H69.4529H56.3489H55.8952L55.5964 12.7255C53.7015 14.8912 52.2901 17.1561 51.3832 19.5221L51.3806 19.5289L51.3781 19.5358C51.1077 20.2732 50.8805 21.047 50.6959 21.8567V20.8881V13.384V12.384H49.6959H47.5119C45.4113 12.384 43.604 13.1421 42.1158 14.5892L41.3633 12.9639L41.0949 12.384H40.4559H35.1359H34.1359V13.384V42.0001ZM81.7474 42.6179L82.0477 43.0001H82.5337H88.4137C90.19 43.0001 91.7854 42.5135 93.1731 41.5468L93.6233 42.4473L93.8997 43.0001H94.5177H100.398H101.398V42.0001V13.384V12.384H100.398H92.9497H91.9497V13.384V35.1201H88.2529C87.2765 33.6473 86.7257 31.4653 86.7257 28.4481V13.384V12.384H85.7257H78.2777H77.2777V13.384V27.8881C77.2777 31.0797 77.5808 33.7929 78.2122 36.0028C78.8521 38.2425 80.042 40.4473 81.7474 42.6179ZM105.189 12.384H104.189V13.384V50.4001V51.4001H105.189H112.637H113.637V50.4001V42.2703C114.718 42.766 115.963 43.0001 117.341 43.0001H122.101H122.501L122.79 42.7251C126.763 38.9507 128.701 33.7747 128.701 27.3281C128.701 24.3126 128.237 21.5243 127.295 18.9737C126.357 16.4326 125.052 14.32 123.36 12.6685L123.068 12.384H122.661H117.621C116.124 12.384 114.87 12.5337 113.946 12.9036L113.937 12.9069L113.929 12.9104C113.433 13.1195 112.932 13.4115 112.428 13.7764L112.104 12.9994L111.848 12.384H111.181H105.189ZM65.9329 27.2161C65.9329 30.1684 65.3802 32.7968 64.2939 35.1201H61.2571C60.1978 33.0408 59.6449 30.4754 59.6449 27.3841C59.6449 24.2594 60.1973 21.9186 61.2008 20.264H64.3202C65.3689 21.9816 65.9329 24.2743 65.9329 27.2161ZM119.085 27.5521C119.085 30.5345 118.518 33.0451 117.426 35.1201H113.637V20.264H117.4C118.504 22.1604 119.085 24.5716 119.085 27.5521Z" stroke="white" stroke-opacity="0.29" stroke-width="2"/>
</g>
<defs>
<filter id="filter0_d_53_739" x="0.679993" y="0.800049" width="133.021" height="59.6" filterUnits="userSpaceOnUse" color-interpolation-filters="sRGB">
<feFlood flood-opacity="0" result="BackgroundImageFix"/>
<feColorMatrix in="SourceAlpha" type="matrix" values="0 0 0 0 0 0 0 0 0 0 0 0 0 0 0 0 0 0 127 0" result="hardAlpha"/>
<feOffset dy="4"/>
<feGaussianBlur stdDeviation="2"/>
<feComposite in2="hardAlpha" operator="out"/>
<feColorMatrix type="matrix" values="0 0 0 0 0 0 0 0 0 0 0 0 0 0 0 0 0 0 0.25 0"/>
<feBlend mode="normal" in2="BackgroundImageFix" result="effect1_dropShadow_53_739"/>
<feBlend mode="normal" in="SourceGraphic" in2="effect1_dropShadow_53_739" result="shape"/>
</filter>
<linearGradient id="paint0_linear_53_739" x1="67.5" y1="-18" x2="67.5" y2="60" gradientUnits="userSpaceOnUse">
<stop stop-color="#465D86"/>
<stop offset="1" stop-color="#2C3A5D"/>
</linearGradient>
</defs>
</svg>
